<svg width="694" height="864" preserveAspectRatio="none" viewBox="0 0 694 864" fill="none" xmlns="http://www.w3.org/2000/svg">
<path d="M0 4.99998C0 2.23856 2.23858 0 5 0H694V864H4.99999C2.23856 864 0 861.761 0 859V4.99998Z" fill="#F4CDB0"/>
<line x1="49.5" y1="2.76488e-10" x2="49.5" y2="864" stroke="#1E1E1E" stroke-opacity="0.11" stroke-width="5"/>
<path d="M196.778 385.721V417.361C198.292 417.166 199.928 416.678 201.686 415.896C205.934 413.992 209.596 411.478 212.672 408.353C215.748 405.228 218.116 401.785 219.776 398.025C221.437 394.217 222.267 390.384 222.267 386.526C222.267 383.45 221.314 380.838 219.41 378.689C217.555 376.541 215.138 375.467 212.159 375.467C209.864 375.467 207.423 376.224 204.835 377.737C202.296 379.202 199.879 381.497 197.584 384.622C197.291 384.964 197.022 385.33 196.778 385.721ZM196.852 425.491V451.858C198.463 456.058 200.392 459.549 202.638 462.332C205.226 465.555 208.033 467.898 211.061 469.363C214.088 470.828 217.14 471.561 220.216 471.561C224.317 471.561 228.224 470.56 231.935 468.558C235.694 466.556 238.746 463.724 241.09 460.062C243.482 456.399 244.679 452.029 244.679 446.951C244.679 442.85 243.653 439.041 241.603 435.525C236.915 427.518 227.589 423.514 213.624 423.514C208.692 423.514 203.102 424.173 196.852 425.491ZM196.852 468.338V476.761L188.648 479.91L178.541 370.853L196.778 368.436V373.489C198.976 371.78 201.271 370.389 203.663 369.314C207.911 367.508 212.086 366.604 216.188 366.604C222.682 366.604 228.053 368.387 232.301 371.951C236.598 375.467 238.746 380.325 238.746 386.526C238.746 391.019 237.647 395.486 235.45 399.93C233.253 404.373 230.055 408.401 225.855 412.015C224.879 412.894 223.854 413.724 222.779 414.505C224.293 414.554 226.393 414.603 229.078 414.651C234.107 414.847 239.625 416.458 245.631 419.485C251.637 422.464 256.104 426.37 259.034 431.204C261.964 435.989 263.429 441.165 263.429 446.731C263.429 451.858 262.354 456.473 260.206 460.574C258.106 464.676 255.226 468.191 251.563 471.121C247.95 474.051 243.849 476.297 239.259 477.859C234.669 479.422 229.933 480.203 225.05 480.203C219.972 480.203 214.991 479.251 210.108 477.347C205.274 475.491 200.88 472.513 196.925 468.411C196.876 468.411 196.852 468.387 196.852 468.338ZM313.014 470.975C305.348 470.975 298.658 469.754 292.945 467.312C287.232 464.871 282.472 461.526 278.663 457.278C274.903 453.03 272.071 448.196 270.167 442.776C268.312 437.308 267.384 431.57 267.384 425.564C267.384 420.096 268.287 414.871 270.094 409.891C271.949 404.91 274.708 400.491 278.37 396.634C282.032 392.776 286.598 389.725 292.066 387.479C297.535 385.232 303.907 384.109 311.183 384.109C323.341 384.109 332.984 388.65 340.113 397.732C346.754 406.18 350.074 416.336 350.074 428.201C350.074 439.627 347.071 449.368 341.065 457.425C334.327 466.458 324.977 470.975 313.014 470.975ZM312.794 462.552C321.827 462.552 328.907 458.963 334.034 451.785C338.575 445.34 340.846 437.601 340.846 428.567C340.846 423.978 340.211 419.485 338.941 415.091C336.207 406.009 331.275 399.515 324.146 395.608C320.484 393.606 316.236 392.605 311.402 392.605C303.492 392.605 297.169 395.975 292.433 402.713C288.087 408.914 285.914 416.531 285.914 425.564C285.914 435.379 288.111 443.802 292.506 450.833C297.34 458.646 304.103 462.552 312.794 462.552ZM403.98 470.975C396.314 470.975 389.625 469.754 383.912 467.312C378.199 464.871 373.438 461.526 369.63 457.278C365.87 453.03 363.038 448.196 361.134 442.776C359.278 437.308 358.351 431.57 358.351 425.564C358.351 420.096 359.254 414.871 361.061 409.891C362.916 404.91 365.675 400.491 369.337 396.634C372.999 392.776 377.564 389.725 383.033 387.479C388.502 385.232 394.874 384.109 402.149 384.109C414.308 384.109 423.951 388.65 431.08 397.732C437.721 406.18 441.041 416.336 441.041 428.201C441.041 439.627 438.038 449.368 432.032 457.425C425.294 466.458 415.943 470.975 403.98 470.975ZM403.761 462.552C412.794 462.552 419.874 458.963 425.001 451.785C429.542 445.34 431.812 437.601 431.812 428.567C431.812 423.978 431.178 419.485 429.908 415.091C427.174 406.009 422.242 399.515 415.113 395.608C411.451 393.606 407.203 392.605 402.369 392.605C394.459 392.605 388.136 395.975 383.399 402.713C379.054 408.914 376.881 416.531 376.881 425.564C376.881 435.379 379.078 443.802 383.473 450.833C388.307 458.646 395.069 462.552 403.761 462.552ZM464.186 441.165L463.6 480.569L455.396 476.541L446.754 369.314L465.284 371.585L464.479 424.905L491.432 378.909L502.271 386.307L475.538 424.393C478.907 423.221 482.447 422.635 486.158 422.635C493.482 422.635 499.61 424.197 504.542 427.322C509.522 430.447 513.282 434.744 515.821 440.213C518.36 445.682 519.63 451.98 519.63 459.109C519.63 463.943 518.922 469.095 517.506 474.563L500.587 476.907C502.101 471.146 502.857 465.701 502.857 460.574C502.857 451.541 501.1 444.461 497.584 439.334C494.312 434.598 489.454 432.229 483.009 432.229C475.196 432.229 468.922 435.208 464.186 441.165Z" fill="black"/>
</svg>
